<?xml version="1.0" standalone="no"?><!DOCTYPE svg PUBLIC "-//W3C//DTD SVG 1.1//EN" "http://www.w3.org/Graphics/SVG/1.1/DTD/svg11.dtd"><svg t="1628309753752" class="icon" viewBox="0 0 1024 1024" version="1.1" xmlns="http://www.w3.org/2000/svg" p-id="918" xmlns:xlink="http://www.w3.org/1999/xlink" width="200" height="200"><defs><style type="text/css"></style></defs><path d="M878.549333 700.672l-9.941333-36.437333H951.466667c-66.261333 175.573333-240.213333 306.432-440.661334 306.432-256.725333 0-467.114667-205.397333-467.114666-462.122667 0-256.768 210.346667-462.165333 473.770666-465.493333 210.346667 0 387.584 139.136 447.232 331.306666h-207.061333l-112.64-279.936-137.472 319.701334-130.858667-319.701334-246.826666 599.637334 99.413333 142.464H782.506667l96.042666-135.850667z m-107.648-276.608l-6.613333-23.210667h200.405333c0 9.941333 3.328 13.226667 3.328 23.210667h-197.12z m-306.474666 266.666667l125.909333-316.373334 130.858667 324.693334-520.106667-6.656L330.24 374.357333l134.144 316.373334z m319.701333-221.952l-9.941333-23.210667h193.834666c3.285333 11.605333 3.285333 14.933333 3.285334 23.210667h-187.178667z m36.48 87.765333L810.666667 533.376h160.64v23.168h-150.698667z m150.698667-64.597333v23.210666h-170.581334l-9.941333-23.210666h180.522667z m-115.925334 150.741333l-9.941333-23.168h112.64c0 9.941333-3.328 13.226667-3.328 23.168h-99.413333z m-18.218666-46.378667l-9.941334-23.168h137.472c0 9.941333-3.328 13.226667-3.328 23.168h-124.202666z" fill="#E50012" p-id="919"></path></svg>